<svg viewBox="-524.487 -524.486 1024.487 1024.486" xmlns="http://www.w3.org/2000/svg"><path d="M-459.002 277.065a194.86 194.86 0 0 1 0-70.781l-65.485-37.844 64.58-111.855 65.486 37.844a194.64 194.64 0 0 1 61.352-35.519v-75.559h129.163V58.91c22.669 8.074 43.4 20.149 61.353 35.519l65.486-37.844 64.58 111.855-65.486 37.844a194.816 194.816 0 0 1 0 70.781l65.486 37.844-64.58 111.855-65.486-37.846a193.51 193.51 0 0 1-61.353 35.52V500h-129.163v-75.56a193.541 193.541 0 0 1-61.352-35.518l-65.486 37.844-64.58-111.855 65.485-37.844v-.002Zm190.516 29.191c49.716 0 80.788-53.816 55.931-96.871a64.588 64.588 0 0 0-55.931-32.291c-49.715 0-80.786 53.817-55.927 96.872a64.573 64.573 0 0 0 55.927 32.29Z" style="fill:#0ea5e9"/><path d="M498.034-487.567c7.696-19.231-8.31-39.581-28.811-36.633a26.903 26.903 0 0 0-6.169 1.654l-782.819 313.14h-.052l-24.324 9.686c-19.239 7.675-22.955 33.299-6.688 46.122.73.576 1.489 1.111 2.276 1.61l22.063 13.992.054.107L-57.64 33.13l171.018 268.795.108.108 13.992 22.064c11.126 17.469 36.993 16.341 46.56-2.031.413-.793.785-1.607 1.118-2.436l322.878-807.196v-.001Zm-98.639 101.706L-3.881 17.416-15.452-.773A26.873 26.873 0 0 0-23.74-9.06l-18.188-11.571 403.275-403.275 63.391-25.346-25.293 63.391h-.05Z" style="fill:#f43f5e"/></svg>