<svg viewBox="-524.487 -524.486 1024.487 1024.486" xmlns="http://www.w3.org/2000/svg"><path d="M619.973 233.444v-79.609h298.434v298.436h-79.609v-159.61l-83.341 93.343-69.215-69.214 93.347-83.346H619.973Z" style="fill:#0ea5e9" transform="translate(-585.112 -617.13) scale(1.18152)"/><path d="M797.581 832.568c-.069 10.049-9.164 19.138-15.754 25.734-6.59 6.597-20.675 11.701-30.723 11.779H88.153c-10.079-.008-19.198-4.098-25.799-10.705-6.602-6.607-10.682-15.731-10.682-25.808v-47.603h661.793V441.49L566.372 573.879l-147.095 132.39-183.873-165.485L51.53 375.299V309.57c0-10.155 4.116-19.348 10.77-26.004 6.655-6.655 15.848-10.771 26.003-10.771h651.939c10.155 0 28.878 12.124 37.921 21.167 9.042 9.042 19.418 26.019 19.418 36.175v502.431ZM151.601 356.91l139.121 125.217 128.555 114.651 128.551-114.651L686.945 356.91H151.601Z" style="fill:#f43f5e" transform="translate(-585.112 -617.13) scale(1.18152)"/><path fill-rule="evenodd" clip-rule="evenodd" d="M200.692 555.704c-5.771-23.692-39.487-23.692-45.258 0-3.707 15.32-21.255 22.596-34.714 14.397-20.836-12.697-44.68 11.147-31.984 31.983 8.201 13.454.927 31.009-14.381 34.732-23.706 5.755-23.706 39.484 0 45.224 15.325 3.712 22.596 21.272 14.381 34.732-12.696 20.836 11.148 44.677 31.984 31.983 13.459-8.215 31.018-.944 34.731 14.382 5.754 23.705 39.485 23.705 45.225 0 3.724-15.314 21.272-22.58 34.73-14.382 20.837 12.694 44.68-11.147 31.984-31.983-8.197-13.461-.934-31.007 14.381-34.732 23.705-5.756 23.705-39.485 0-45.224-15.324-3.715-22.596-21.275-14.381-34.732 12.696-20.836-11.147-44.68-31.984-31.983-13.457 8.214-31.018.942-34.73-14.383l.016-.014Zm-22.628 149.283c35.07 0 56.99-37.966 39.455-68.34a45.56 45.56 0 0 0-39.455-22.78c-35.073 0-56.992 37.966-39.457 68.34a45.56 45.56 0 0 0 39.457 22.78Z" style="fill-rule:evenodd;fill:#0ea5e9;paint-order:fill;stroke:#0ea5e9" transform="translate(-585.112 -617.13) scale(1.18152)"/></svg>