<?xml version="1.0" encoding="utf-8"?>
<svg viewBox="28.531 0 1024.484 1023.877" xmlns="http://www.w3.org/2000/svg">
  <g transform="matrix(1.128265, 0, 0, 1.128265, 40.633026, -36.847755)" style="visibility: hidden;">
    <title>v1</title>
    <path d="M 660.887 182.325 L 660.887 137.521 L 660.887 102.716 L 810.104 102.716 L 959.321 102.716 L 959.321 251.934 L 959.321 401.152 L 924.517 401.152 L 879.712 401.152 L 879.712 311.347 L 879.712 241.542 L 796.371 324.885 L 729.029 392.227 C 722.241 399.015 713.339 402.409 704.432 402.409 C 695.525 402.409 686.614 389.015 679.81 382.227 C 673.023 375.423 659.629 366.513 659.629 357.608 C 659.629 348.702 663.023 339.801 669.81 333.017 L 737.156 265.671 L 820.503 182.325 L 750.695 182.325 L 660.887 182.325 Z" style="fill: rgb(14, 165, 233);">
      <title>Arrow</title>
    </path>
    <path d="M 757.607 835.524 C 757.542 845.035 753.666 853.637 747.429 859.88 C 741.192 866.123 732.594 870.007 723.084 870.081 L 399.57 870.081 L 86.191 870.081 C 76.652 870.073 68.021 866.203 61.774 859.95 C 55.526 853.697 51.664 845.061 51.664 835.524 L 51.664 807.998 L 51.664 790.472 L 364.764 790.472 L 677.998 790.472 L 677.998 668.057 L 677.998 464.454 L 538.786 589.75 L 399.573 715.046 L 225.552 558.428 L 51.53 401.81 L 51.53 375.707 L 51.53 339.603 C 51.53 329.992 55.425 321.291 61.723 314.992 C 68.021 308.694 76.722 304.798 86.333 304.798 L 399.569 304.798 L 712.804 304.798 C 722.415 304.798 737.296 310.594 745.854 319.152 C 754.412 327.71 757.607 339.992 757.607 349.603 L 757.607 628.157 L 757.607 835.524 Z M 146.239 384.406 L 277.906 502.914 L 399.573 611.422 L 521.236 502.914 L 652.899 384.406 L 399.569 384.406 L 146.239 384.406 Z" style="fill: rgb(244, 63, 94);">
      <title>Mail</title>
    </path>
    <path d="M 51.53 579.192 L 138.541 579.192 L 225.551 579.192 L 225.551 617.997 L 225.551 656.801 L 138.541 656.801 L 51.53 656.801 L 51.53 617.997 L 51.53 579.192 Z" style="fill: rgb(244, 63, 94);">
      <title>Top line</title>
    </path>
    <path d="M 51.53 684.761 L 188.156 684.761 L 324.78 684.761 L 324.78 723.566 L 324.78 762.37 L 188.156 762.37 L 51.53 762.37 L 51.53 723.566 L 51.53 684.761 Z" style="fill: rgb(244, 63, 94);">
      <title>Bottom line</title>
    </path>
  </g>
  <g transform="matrix(1.181516, 0, 0, 1.181516, 38.147064, -92.947975)" style="visibility: hidden;">
    <title>v2</title>
    <path d="M 619.973 233.444 L 619.973 188.64 L 619.973 153.835 L 769.19 153.835 L 918.407 153.835 L 918.407 303.053 L 918.407 452.271 L 883.603 452.271 L 838.798 452.271 L 838.798 362.466 L 838.798 292.661 L 755.457 386.004 L 686.242 316.79 L 779.589 233.444 L 709.781 233.444 L 619.973 233.444 Z" style="fill: rgb(14, 165, 233);">
      <title>Arrow</title>
    </path>
    <path d="M 797.581 832.568 C 797.512 842.617 788.417 851.706 781.827 858.302 C 775.237 864.899 761.152 870.003 751.104 870.081 L 419.274 870.081 L 88.153 870.081 C 78.074 870.073 68.955 865.983 62.354 859.376 C 55.752 852.769 51.672 843.645 51.672 833.568 L 51.672 804.483 L 51.672 785.965 L 382.498 785.965 L 713.465 785.965 L 713.465 656.62 L 713.465 441.49 L 566.372 573.879 L 419.277 706.269 L 235.404 540.784 L 51.53 375.299 L 51.53 347.718 L 51.53 309.57 C 51.53 299.415 55.646 290.222 62.3 283.566 C 68.955 276.911 78.148 272.795 88.303 272.795 L 419.273 272.795 L 740.242 272.795 C 750.397 272.795 769.12 284.919 778.163 293.962 C 787.205 303.004 797.581 319.981 797.581 330.137 L 797.581 614.461 L 797.581 832.568 Z M 151.601 356.91 L 290.722 482.127 L 419.277 596.778 L 547.828 482.127 L 686.945 356.91 L 419.273 356.91 L 151.601 356.91 Z" style="fill: rgb(244, 63, 94);">
      <title>Mail</title>
    </path>
    <path fill-rule="evenodd" clip-rule="evenodd" d="M 200.692 555.704 C 194.921 532.012 161.205 532.012 155.434 555.704 C 151.727 571.024 134.179 578.3 120.72 570.101 C 99.884 557.404 76.04 581.248 88.736 602.084 C 96.937 615.538 89.663 633.093 74.355 636.816 C 50.649 642.571 50.649 676.3 74.355 682.04 C 89.68 685.752 96.951 703.312 88.736 716.772 C 76.04 737.608 99.884 761.449 120.72 748.755 C 134.179 740.54 151.738 747.811 155.451 763.137 C 161.205 786.842 194.936 786.842 200.676 763.137 C 204.4 747.823 221.948 740.557 235.406 748.755 C 256.243 761.449 280.086 737.608 267.39 716.772 C 259.193 703.311 266.456 685.765 281.771 682.04 C 305.476 676.284 305.476 642.555 281.771 636.816 C 266.447 633.101 259.175 615.541 267.39 602.084 C 280.086 581.248 256.243 557.404 235.406 570.101 C 221.949 578.315 204.388 571.043 200.676 555.718 L 200.692 555.704 Z M 178.064 704.987 C 213.134 704.987 235.054 667.021 217.519 636.647 C 209.381 622.551 194.339 613.867 178.064 613.867 C 142.991 613.867 121.072 651.833 138.607 682.207 C 146.746 696.304 161.786 704.987 178.064 704.987 Z" style="fill-rule: evenodd; fill: rgb(14, 165, 233); paint-order: fill; stroke: rgb(14, 165, 233);">
      <title>Cog</title>
    </path>
  </g>
  <g style="visibility: hidden;" transform="matrix(1, 0, 0, 1, 623.259521, 524.18158)">
    <title>v3</title>
    <path d="M -459.002 277.065 C -463.323 253.67 -463.323 229.681 -459.002 206.284 L -524.487 168.44 L -459.907 56.585 L -394.421 94.429 C -376.468 79.058 -355.737 66.982 -333.069 58.91 L -333.069 -16.649 L -203.906 -16.649 L -203.906 58.91 C -181.237 66.984 -160.506 79.059 -142.553 94.429 L -77.067 56.585 L -12.487 168.44 L -77.973 206.284 C -73.651 229.681 -73.651 253.67 -77.973 277.065 L -12.487 314.909 L -77.067 426.764 L -142.553 388.918 C -160.643 404.435 -181.441 416.477 -203.906 424.438 L -203.906 500 L -333.069 500 L -333.069 424.44 C -355.532 416.479 -376.331 404.438 -394.421 388.922 L -459.907 426.766 L -524.487 314.911 L -459.002 277.067 L -459.002 277.065 Z M -268.486 306.256 C -218.77 306.256 -187.698 252.44 -212.555 209.385 C -224.094 189.404 -245.412 177.094 -268.486 177.094 C -318.201 177.094 -349.272 230.911 -324.413 273.966 C -312.878 293.95 -291.557 306.256 -268.486 306.256 Z" style="fill: rgb(14, 165, 233);">
      <title>Cog</title>
    </path>
    <path d="M 498.034 -487.567 C 505.73 -506.798 489.724 -527.148 469.223 -524.2 C 467.108 -523.895 465.038 -523.341 463.054 -522.546 L -319.765 -209.406 L -319.817 -209.406 L -344.141 -199.72 C -363.38 -192.045 -367.096 -166.421 -350.829 -153.598 C -350.099 -153.022 -349.34 -152.487 -348.553 -151.988 L -326.49 -137.996 L -326.436 -137.889 L -57.64 33.13 L 113.378 301.925 L 113.486 302.033 L 127.478 324.097 C 138.604 341.566 164.471 340.438 174.038 322.066 C 174.451 321.273 174.823 320.459 175.156 319.63 L 498.034 -487.566 L 498.034 -487.567 Z M 399.395 -385.861 L -3.881 17.416 L -15.452 -0.773 C -17.572 -4.112 -20.402 -6.942 -23.74 -9.06 L -41.928 -20.631 L 361.347 -423.906 L 424.738 -449.252 L 399.445 -385.861 L 399.395 -385.861 Z" style="fill: rgb(244, 63, 94);">
      <title>Arrow</title>
    </path>
  </g>
  <g style="visibility: hidden;" transform="matrix(1, 0, 0, 1, 623.001526, 524.181519)">
    <title>v4</title>
    <path style="fill: rgb(14, 165, 233);" d="M -3.514 -344.849 L -121.951 -239.607 L -524.325 121.139 L -524.229 265.888 L -67.186 -140.848 L 136.884 -324.501">
      <title>Line 1</title>
    </path>
    <path style="fill: rgb(14, 165, 233);" d="M 441.395 -92.391 L -103.408 396.344 L 55.611 397.755 L 446.038 50.396">
      <title>Line 2</title>
    </path>
    <path d="M 500 346.255 C 499.906 360.051 487.42 372.529 478.371 381.584 C 469.324 390.641 449.988 397.648 436.194 397.755 L -19.366 397.755 L -473.951 397.755 C -487.788 397.745 -500.307 392.13 -509.369 383.059 C -518.433 373.989 -524.034 361.463 -524.034 347.628 L -524.034 307.698 L -524.034 282.275 L -69.854 282.275 L 384.52 282.275 L 384.52 104.702 L 384.52 -190.643 L -149.451 284.403 L -309.362 283.372 L -101.698 98.761 L -524.229 -281.514 L -524.229 -319.38 L -524.229 -371.751 C -524.229 -385.694 -518.579 -398.314 -509.443 -407.452 C -500.307 -416.588 -487.687 -422.24 -473.744 -422.24 L -19.367 -422.24 L 421.281 -422.24 C 435.222 -422.24 460.927 -405.595 473.341 -393.179 C 485.756 -380.766 500 -357.459 500 -343.516 L 500 46.823 L 500 346.255 Z M -386.845 -306.76 L -19.361 22.547 L 348.112 -306.76 L -386.845 -306.76 Z" style="fill: rgb(244, 63, 94);">
      <title>Mail</title>
    </path>
  </g>
  <g transform="matrix(1.128265, 0, 0, 1.128265, -8.602303, -135.899261)" style="visibility: hidden;">
    <title>v5</title>
    <path style="fill: rgb(14, 165, 233);" d="M 67.351 300.858 C 67.351 300.858 119.481 244.781 119.1 244.781 C 118.795 244.781 843.482 236.656 844.606 237.78 C 845.73 238.904 866.615 309.656 866.615 309.545 C 866.615 308.877 479.011 662.398 479.679 662.398">
      <title>Background</title>
    </path>
    <path d="M 940.929 873.025 C 940.846 885.256 935.861 896.318 927.84 904.347 C 919.819 912.375 908.762 917.37 896.532 917.465 L 480.491 917.465 L 77.483 917.465 C 65.216 917.455 54.117 912.478 46.083 904.437 C 38.048 896.395 33.081 885.289 33.081 873.025 L 33.081 837.626 L 33.081 815.087 L 435.73 815.087 L 838.551 815.087 L 838.551 657.661 L 838.551 395.826 L 659.524 556.957 L 480.495 718.089 L 256.703 516.677 L 32.909 315.265 L 32.909 281.697 L 32.909 235.266 C 32.909 222.907 37.918 211.717 46.017 203.617 C 54.117 195.517 65.306 190.507 77.666 190.507 L 480.49 190.507 L 883.312 190.507 C 895.672 190.507 914.809 197.961 925.815 208.966 C 936.82 219.972 940.929 235.767 940.929 248.127 L 940.929 606.349 L 940.929 873.025 Z M 154.705 292.883 L 324.03 445.286 L 480.495 584.828 L 636.954 445.286 L 806.274 292.883 L 480.49 292.883 L 154.705 292.883 Z" style="fill: rgb(244, 63, 94);">
      <title>Mail</title>
    </path>
  </g>
  <g transform="matrix(1, 0, 0, 1, 0, 511.938477)">
    <title>v6</title>
  </g>
  <path d="M 948.864 134.616 L 219.809 134.616 C 162.37 134.616 115.657 181.328 115.657 238.767 L 115.657 499.145 L 219.809 499.145 L 219.809 342.919 L 553.09 592.88 C 571.612 606.75 597.058 606.75 615.581 592.88 L 948.864 342.919 L 948.864 811.597 L 532.261 811.597 L 532.261 915.748 L 948.864 915.748 C 1006.303 915.748 1053.015 869.036 1053.015 811.597 L 1053.015 238.767 C 1053.015 181.328 1006.303 134.616 948.864 134.616 Z M 584.337 486.125 L 254.491 238.767 L 914.181 238.767 L 584.335 486.125 L 584.337 486.125 Z" style="fill: rgb(0, 85, 189);">
    <title>Mail</title>
  </path>
  <path d="M 28.531 532.677 L 393.058 532.677 L 393.058 636.828 L 28.531 636.828 L 28.531 532.677 Z M 132.682 688.903 L 445.134 688.903 L 445.134 793.054 L 132.681 793.054 L 132.682 688.903 Z M 288.908 845.129 L 497.209 845.129 L 497.209 949.28 L 288.907 949.28 L 288.908 845.129 Z" style="fill: rgb(189, 122, 0);">
    <title>Arrows</title>
  </path>
</svg>
