<svg viewBox="28.531 0 1024.484 1023.877" xmlns="http://www.w3.org/2000/svg"><path d="M948.864 134.616H219.809c-57.439 0-104.152 46.712-104.152 104.151v260.378h104.152V342.919L553.09 592.88c18.522 13.87 43.968 13.87 62.491 0l333.283-249.961v468.678H532.261v104.151h416.603c57.439 0 104.151-46.712 104.151-104.151v-572.83c0-57.439-46.712-104.151-104.151-104.151ZM584.337 486.125 254.491 238.767h659.69L584.335 486.125h.002Z" style="fill:#0055bd"/><path d="M28.531 532.677h364.527v104.151H28.531V532.677Zm104.151 156.226h312.452v104.151H132.681l.001-104.151Zm156.226 156.226h208.301V949.28H288.907l.001-104.151Z" style="fill:#bd7a00"/></svg>