<svg viewBox="-524.487 -524.486 1024.487 1024.486" xmlns="http://www.w3.org/2000/svg"><path style="fill:#0ea5e9" d="m-3.514-344.849-118.437 105.242-402.374 360.746.096 144.749 457.043-406.736 204.07-183.653m304.511 232.11-544.803 488.735 159.019 1.411L446.038 50.396" transform="translate(-.258)"/><path d="M500 346.255c-.094 13.796-12.58 26.274-21.629 35.329-9.047 9.057-28.383 16.064-42.177 16.171h-910.145c-13.837-.01-26.356-5.625-35.418-14.696-9.064-9.07-14.665-21.596-14.665-35.431v-65.353H384.52v-472.918l-533.971 475.046-159.911-1.031 207.664-184.611-422.531-380.275v-90.237c0-13.943 5.65-26.563 14.786-35.701 9.136-9.136 21.756-14.788 35.699-14.788h895.025c13.941 0 39.646 16.645 52.06 29.061C485.756-380.766 500-357.459 500-343.516v689.771ZM-386.845-306.76-19.361 22.547 348.112-306.76h-734.957Z" style="fill:#f43f5e" transform="translate(-.258)"/></svg>