<svg viewBox="-524.487 -524.486 1024.487 1024.486" xmlns="http://www.w3.org/2000/svg"><path d="M660.887 182.325v-79.609h298.434v298.436h-79.609v-159.61l-83.341 83.343-67.342 67.342c-6.788 6.788-15.69 10.182-24.597 10.182-8.907 0-17.818-13.394-24.622-20.182-6.787-6.804-20.181-15.714-20.181-24.619 0-8.906 3.394-17.807 10.181-24.591l67.346-67.346 83.347-83.346H660.887Z" style="fill:#0ea5e9" transform="translate(-582.627 -561.03) scale(1.12827)"/><path d="M757.607 835.524c-.065 9.511-3.941 18.113-10.178 24.356-6.237 6.243-14.835 10.127-24.345 10.201H86.191c-9.539-.008-18.17-3.878-24.417-10.131-6.248-6.253-10.11-14.889-10.11-24.426v-45.052h626.334V464.454L538.786 589.75 399.573 715.046 225.552 558.428 51.53 401.81v-62.207c0-9.611 3.895-18.312 10.193-24.611 6.298-6.298 14.999-10.194 24.61-10.194h626.471c9.611 0 24.492 5.796 33.05 14.354 8.558 8.558 11.753 20.84 11.753 30.451v485.921ZM146.239 384.406l131.667 118.508 121.667 108.508 121.663-108.508 131.663-118.508h-506.66Z" style="fill:#f43f5e" transform="translate(-582.627 -561.03) scale(1.12827)"/><path d="M51.53 579.192h174.021v77.609H51.53v-77.609Zm0 105.569h273.25v77.609H51.53v-77.609Z" style="fill:#f43f5e" transform="translate(-582.627 -561.03) scale(1.12827)"/></svg>