<svg viewBox="-524.487 -524.486 1024.487 1024.486" xmlns="http://www.w3.org/2000/svg"><path style="fill:#0ea5e9" d="M67.351 300.858s52.13-56.077 51.749-56.077c-.305 0 724.382-8.125 725.506-7.001 1.124 1.124 22.009 71.876 22.009 71.765 0-.668-387.604 352.853-386.936 352.853" transform="translate(-561.617 -637.286) scale(1.12827)"/><path d="M940.929 873.025c-.083 12.231-5.068 23.293-13.089 31.322-8.021 8.028-19.078 13.023-31.308 13.118H77.483c-12.267-.01-23.366-4.987-31.4-13.028-8.035-8.042-13.002-19.148-13.002-31.412v-57.938h805.47V395.826L659.524 556.957 480.495 718.089 256.703 516.677 32.909 315.265v-79.999c0-12.359 5.009-23.549 13.108-31.649 8.1-8.1 19.289-13.11 31.649-13.11h805.646c12.36 0 31.497 7.454 42.503 18.459 11.005 11.006 15.114 26.801 15.114 39.161v624.898ZM154.705 292.883 324.03 445.286l156.465 139.542 156.459-139.542 169.32-152.403H154.705Z" style="fill:#f43f5e" transform="translate(-561.617 -637.286) scale(1.12827)"/></svg>