<?xml version="1.0" encoding="utf-8"?>
<svg viewBox="-379.295 -420.412 1024.229 1024.23" xmlns="http://www.w3.org/2000/svg">
  <g transform="matrix(1.181516, 0, 0, 1.181516, -440.178497, -513.183594)" style="">
    <title>v2</title>
    <path d="M 619.973 233.444 L 619.973 188.64 L 619.973 153.835 L 769.19 153.835 L 918.407 153.835 L 918.407 303.053 L 918.407 452.271 L 883.603 452.271 L 838.798 452.271 L 838.798 362.466 L 838.798 292.661 L 755.457 386.004 L 686.242 316.79 L 779.589 233.444 L 709.781 233.444 L 619.973 233.444 Z" style="fill: rgb(14, 165, 233);">
      <title>Arrow</title>
    </path>
    <path d="M 797.581 832.568 C 797.512 842.617 788.417 851.706 781.827 858.302 C 775.237 864.899 761.152 870.003 751.104 870.081 L 419.274 870.081 L 88.153 870.081 C 78.074 870.073 68.955 865.983 62.354 859.376 C 55.752 852.769 51.672 843.645 51.672 833.568 L 51.672 804.483 L 51.672 785.965 L 382.498 785.965 L 713.465 785.965 L 713.465 656.62 L 713.465 441.49 L 566.372 573.879 L 419.277 706.269 L 235.404 540.784 L 51.53 375.299 L 51.53 347.718 L 51.53 309.57 C 51.53 299.415 55.646 290.222 62.3 283.566 C 68.955 276.911 78.148 272.795 88.303 272.795 L 419.273 272.795 L 740.242 272.795 C 750.397 272.795 769.12 284.919 778.163 293.962 C 787.205 303.004 797.581 319.981 797.581 330.137 L 797.581 614.461 L 797.581 832.568 Z M 151.601 356.91 L 290.722 482.127 L 419.277 596.778 L 547.828 482.127 L 686.945 356.91 L 419.273 356.91 L 151.601 356.91 Z" style="fill: rgb(244, 63, 94);">
      <title>Mail</title>
    </path>
    <path fill-rule="evenodd" clip-rule="evenodd" d="M 200.692 555.704 C 194.921 532.012 161.205 532.012 155.434 555.704 C 151.727 571.024 134.179 578.3 120.72 570.101 C 99.884 557.404 76.04 581.248 88.736 602.084 C 96.937 615.538 89.663 633.093 74.355 636.816 C 50.649 642.571 50.649 676.3 74.355 682.04 C 89.68 685.752 96.951 703.312 88.736 716.772 C 76.04 737.608 99.884 761.449 120.72 748.755 C 134.179 740.54 151.738 747.811 155.451 763.137 C 161.205 786.842 194.936 786.842 200.676 763.137 C 204.4 747.823 221.948 740.557 235.406 748.755 C 256.243 761.449 280.086 737.608 267.39 716.772 C 259.193 703.311 266.456 685.765 281.771 682.04 C 305.476 676.284 305.476 642.555 281.771 636.816 C 266.447 633.101 259.175 615.541 267.39 602.084 C 280.086 581.248 256.243 557.404 235.406 570.101 C 221.949 578.315 204.388 571.043 200.676 555.718 L 200.692 555.704 Z M 178.064 704.987 C 213.134 704.987 235.054 667.021 217.519 636.647 C 209.381 622.551 194.339 613.867 178.064 613.867 C 142.991 613.867 121.072 651.833 138.607 682.207 C 146.746 696.304 161.786 704.987 178.064 704.987 Z" style="fill-rule: evenodd; fill: rgb(14, 165, 233); paint-order: fill; stroke: rgb(14, 165, 233);">
      <title>Cog</title>
    </path>
  </g>
  <g transform="matrix(1.128265, 0, 0, 1.128265, -437.434479, -457.083374)" style="visibility: hidden;">
    <title>v1</title>
    <path d="M 660.887 182.325 L 660.887 137.521 L 660.887 102.716 L 810.104 102.716 L 959.321 102.716 L 959.321 251.934 L 959.321 401.152 L 924.517 401.152 L 879.712 401.152 L 879.712 311.347 L 879.712 241.542 L 796.371 324.885 L 729.029 392.227 C 722.241 399.015 713.339 402.409 704.432 402.409 C 695.525 402.409 686.614 389.015 679.81 382.227 C 673.023 375.423 659.629 366.513 659.629 357.608 C 659.629 348.702 663.023 339.801 669.81 333.017 L 737.156 265.671 L 820.503 182.325 L 750.695 182.325 L 660.887 182.325 Z" style="fill: rgb(14, 165, 233);">
      <title>Arrow</title>
    </path>
    <path d="M 757.607 835.524 C 757.542 845.035 753.666 853.637 747.429 859.88 C 741.192 866.123 732.594 870.007 723.084 870.081 L 399.57 870.081 L 86.191 870.081 C 76.652 870.073 68.021 866.203 61.774 859.95 C 55.526 853.697 51.664 845.061 51.664 835.524 L 51.664 807.998 L 51.664 790.472 L 364.764 790.472 L 677.998 790.472 L 677.998 668.057 L 677.998 464.454 L 538.786 589.75 L 399.573 715.046 L 225.552 558.428 L 51.53 401.81 L 51.53 375.707 L 51.53 339.603 C 51.53 329.992 55.425 321.291 61.723 314.992 C 68.021 308.694 76.722 304.798 86.333 304.798 L 399.569 304.798 L 712.804 304.798 C 722.415 304.798 737.296 310.594 745.854 319.152 C 754.412 327.71 757.607 339.992 757.607 349.603 L 757.607 628.157 L 757.607 835.524 Z M 146.239 384.406 L 277.906 502.914 L 399.573 611.422 L 521.236 502.914 L 652.899 384.406 L 399.569 384.406 L 146.239 384.406 Z" style="fill: rgb(244, 63, 94);">
      <title>Mail</title>
    </path>
    <path d="M 51.53 579.192 L 138.541 579.192 L 225.551 579.192 L 225.551 617.997 L 225.551 656.801 L 138.541 656.801 L 51.53 656.801 L 51.53 617.997 L 51.53 579.192 Z" style="fill: rgb(244, 63, 94);">
      <title>Top line</title>
    </path>
    <path d="M 51.53 684.761 L 188.156 684.761 L 324.78 684.761 L 324.78 723.566 L 324.78 762.37 L 188.156 762.37 L 51.53 762.37 L 51.53 723.566 L 51.53 684.761 Z" style="fill: rgb(244, 63, 94);">
      <title>Bottom line</title>
    </path>
  </g>
</svg>